<svg xmlns="http://www.w3.org/2000/svg" xmlns:xlink="http://www.w3.org/1999/xlink" width="500" zoomAndPan="magnify" viewBox="0 0 375 374.999991" height="500" preserveAspectRatio="xMidYMid meet" version="1.0"><defs><g/><clipPath id="2276195e00"><path d="M 0 8 L 262 8 L 262 340 L 0 340 Z M 0 8 " clip-rule="nonzero"/></clipPath><clipPath id="894a1ca640"><path d="M 0.00390625 49.574219 L 59.460938 8.203125 L 261.398438 298.425781 L 201.9375 339.796875 Z M 0.00390625 49.574219 " clip-rule="nonzero"/></clipPath><clipPath id="3f3ccf7404"><path d="M 239.097656 171.707031 L 246.976562 171.707031 L 246.976562 266.367188 L 239.097656 266.367188 Z M 239.097656 171.707031 " clip-rule="nonzero"/></clipPath><clipPath id="5059cf5fc5"><path d="M 196.375 131.210938 L 202.113281 131.210938 L 202.113281 233.394531 L 196.375 233.394531 Z M 196.375 131.210938 " clip-rule="nonzero"/></clipPath><clipPath id="fd3251389d"><path d="M 196.375 230.257812 L 202.113281 230.257812 L 202.113281 246.144531 L 196.375 246.144531 Z M 196.375 230.257812 " clip-rule="nonzero"/></clipPath><clipPath id="95c5921ae0"><path d="M 202.113281 142.210938 L 209.234375 142.210938 L 209.234375 254.085938 L 202.113281 254.085938 Z M 202.113281 142.210938 " clip-rule="nonzero"/></clipPath><clipPath id="4484e305f8"><path d="M 196.375 126.785156 L 202.113281 126.785156 L 202.113281 142.210938 L 196.375 142.210938 Z M 196.375 126.785156 " clip-rule="nonzero"/></clipPath></defs><rect x="-37.5" width="450" fill="#ffffff" y="-37.499999" height="449.999989" fill-opacity="1"/><rect x="-37.5" width="450" fill="#ffffff" y="-37.499999" height="449.999989" fill-opacity="1"/><g fill="#000000" fill-opacity="1"><g transform="translate(131.016751, 250.049786)"><g><path d="M 8.515625 -153.3125 L 126.296875 -153.3125 C 145.597656 -153.3125 159.875 -149.132812 169.125 -140.78125 C 178.375 -132.425781 183 -119.40625 183 -101.71875 C 183 -87.4375 179.914062 -76.320312 173.75 -68.375 C 167.582031 -60.425781 158.253906 -55.238281 145.765625 -52.8125 L 161.828125 -31.390625 C 168.472656 -22.460938 174.269531 -15.609375 179.21875 -10.828125 C 184.164062 -6.046875 189.804688 -2.4375 196.140625 0 L 138.46875 0 L 81.765625 -79.578125 L 118.015625 -79.578125 C 127.109375 -79.578125 133.757812 -81.359375 137.96875 -84.921875 C 142.1875 -88.492188 144.296875 -94.253906 144.296875 -102.203125 C 144.296875 -110.148438 142.1875 -115.90625 137.96875 -119.46875 C 133.757812 -123.039062 127.109375 -124.828125 118.015625 -124.828125 L 65.453125 -124.828125 L 65.453125 -28.71875 C 65.453125 -22.0625 66.019531 -16.945312 67.15625 -13.375 C 68.289062 -9.8125 70.238281 -7.097656 73 -5.234375 C 75.757812 -3.367188 79.492188 -1.625 84.203125 0 L 8.515625 0 C 13.222656 -1.625 16.914062 -3.367188 19.59375 -5.234375 C 22.269531 -7.097656 24.175781 -9.8125 25.3125 -13.375 C 26.445312 -16.945312 27.015625 -22.0625 27.015625 -28.71875 L 27.015625 -124.59375 C 27.015625 -131.238281 26.445312 -136.347656 25.3125 -139.921875 C 24.175781 -143.492188 22.269531 -146.25 19.59375 -148.1875 C 16.914062 -150.132812 13.222656 -151.84375 8.515625 -153.3125 Z M 8.515625 -153.3125 "/></g></g></g><g clip-path="url(#2276195e00)"><g clip-path="url(#894a1ca640)"><path fill="#ffffff" d="M 0.00390625 49.574219 L 59.460938 8.203125 L 261.46875 298.527344 L 202.011719 339.898438 Z M 0.00390625 49.574219 " fill-opacity="1" fill-rule="nonzero"/></g></g><g fill="#000000" fill-opacity="1"><g transform="translate(58.65754, 285.840878)"><g><path d="M 8.515625 0 C 13.222656 -1.625 16.914062 -3.367188 19.59375 -5.234375 C 22.269531 -7.097656 24.175781 -9.8125 25.3125 -13.375 C 26.445312 -16.945312 27.015625 -22.0625 27.015625 -28.71875 L 27.015625 -124.59375 C 27.015625 -131.238281 26.445312 -136.347656 25.3125 -139.921875 C 24.175781 -143.492188 22.269531 -146.25 19.59375 -148.1875 C 16.914062 -150.132812 13.222656 -151.84375 8.515625 -153.3125 L 120.703125 -153.3125 C 139.035156 -153.3125 152.175781 -149.78125 160.125 -142.71875 C 168.070312 -135.664062 172.046875 -125.242188 172.046875 -111.453125 C 172.046875 -97.171875 167.910156 -86.625 159.640625 -79.8125 C 167.742188 -76.726562 173.660156 -72.023438 177.390625 -65.703125 C 181.128906 -59.378906 183 -51.429688 183 -41.859375 C 183 -28.066406 179.019531 -17.640625 171.0625 -10.578125 C 163.113281 -3.523438 149.976562 0 131.65625 0 Z M 65.453125 -63.265625 L 65.453125 -26.53125 L 121.921875 -26.53125 C 130.023438 -26.53125 135.78125 -28.03125 139.1875 -31.03125 C 142.59375 -34.03125 144.296875 -38.53125 144.296875 -44.53125 C 144.296875 -50.851562 142.59375 -55.554688 139.1875 -58.640625 C 135.78125 -61.722656 130.023438 -63.265625 121.921875 -63.265625 Z M 65.453125 -90.03125 L 110.96875 -90.03125 C 119.070312 -90.03125 124.828125 -91.570312 128.234375 -94.65625 C 131.648438 -97.738281 133.359375 -102.445312 133.359375 -108.78125 C 133.359375 -114.78125 131.648438 -119.28125 128.234375 -122.28125 C 124.828125 -125.28125 119.070312 -126.78125 110.96875 -126.78125 L 65.453125 -126.78125 Z M 65.453125 -90.03125 "/></g></g></g><g clip-path="url(#3f3ccf7404)"><path fill="#ffffff" d="M 239.097656 171.707031 L 246.976562 171.707031 L 246.976562 266.367188 L 239.097656 266.367188 Z M 239.097656 171.707031 " fill-opacity="1" fill-rule="nonzero"/></g><g clip-path="url(#5059cf5fc5)"><path fill="#ffffff" d="M 196.375 131.210938 L 202.113281 131.210938 L 202.113281 233.386719 L 196.375 233.386719 Z M 196.375 131.210938 " fill-opacity="1" fill-rule="nonzero"/></g><g clip-path="url(#fd3251389d)"><path fill="#ffffff" d="M 196.375 230.257812 L 202.113281 230.257812 L 202.113281 246.136719 L 196.375 246.136719 Z M 196.375 230.257812 " fill-opacity="1" fill-rule="nonzero"/></g><g clip-path="url(#95c5921ae0)"><path fill="#000000" d="M 202.113281 142.210938 L 209.234375 142.210938 L 209.234375 254.082031 L 202.113281 254.082031 Z M 202.113281 142.210938 " fill-opacity="1" fill-rule="nonzero"/></g><g clip-path="url(#4484e305f8)"><path fill="#ffffff" d="M 196.375 126.785156 L 202.113281 126.785156 L 202.113281 142.214844 L 196.375 142.214844 Z M 196.375 126.785156 " fill-opacity="1" fill-rule="nonzero"/></g></svg>